<svg width="45" height="45" viewBox="0 0 45 45" fill="none" xmlns="http://www.w3.org/2000/svg">
<rect x="0.5" y="0.5" width="44" height="44" stroke="#2F274C"/>
<path d="M34.125 25.1495V32.9775H30.2574V26.0945C30.2574 25.2363 30.2553 24.1258 29.8905 23.2321C29.702 22.7701 29.4089 22.3432 28.9545 22.0357C28.5001 21.7282 27.9263 21.5683 27.2253 21.5683C26.5288 21.5683 25.9439 21.7002 25.4627 21.9583C24.9781 22.2183 24.627 22.5914 24.379 23.0275C23.8961 23.8763 23.8034 24.9663 23.8034 25.9665V32.9775H19.9375V18.416H23.6077V20.3687V20.8687H24.1077H24.1743H24.4715L24.6135 20.6077C25.1768 19.5725 26.6 18.416 28.7846 18.416C31.1325 18.416 32.4078 19.1555 33.1341 20.272C33.8929 21.4383 34.125 23.1171 34.125 25.1495Z" stroke="#2F274C"/>
<path d="M11.5 18.416H15.5625V32.9775H11.5V18.416Z" stroke="#2F274C"/>
<path d="M15.5625 13.5935C15.5625 14.7614 14.6418 15.687 13.5312 15.687C12.4207 15.687 11.5 14.7614 11.5 13.5935C11.5 12.4256 12.4207 11.5 13.5312 11.5C14.6418 11.5 15.5625 12.4256 15.5625 13.5935Z" stroke="#2F274C"/>
</svg>
