<svg width="40" height="40" viewBox="0 0 40 40" fill="none" xmlns="http://www.w3.org/2000/svg">
<circle cx="20" cy="20" r="19" stroke="#2F274C" stroke-width="2"/>
<path d="M13.808 20.536C14.5547 20.4293 15.2427 20.376 15.872 20.376L15.712 16.648C15.456 17.1067 15.0933 17.8427 14.624 18.856C14.2187 19.72 13.9467 20.28 13.808 20.536ZM18.592 26.264C18.6347 26.424 18.592 26.5787 18.464 26.728C18.336 26.8667 18.16 26.9787 17.936 27.064C17.7227 27.16 17.52 27.208 17.328 27.208C17.0187 27.208 16.8427 27.112 16.8 26.92C16.416 25.3947 16.1333 23.5813 15.952 21.48C14.992 21.4693 14.0373 21.56 13.088 21.752C12.0853 23.4267 11.152 24.968 10.288 26.376C10.2027 26.5253 10.0267 26.6533 9.76 26.76C9.48267 26.856 9.22667 26.904 8.992 26.904C8.69333 26.904 8.544 26.824 8.544 26.664C8.544 26.6 8.56533 26.5307 8.608 26.456C9.46133 24.9627 10.2507 23.5973 10.976 22.36L10.704 22.456C10.5333 22.52 10.3787 22.552 10.24 22.552C10.1013 22.552 9.99467 22.52 9.92 22.456C9.83467 22.392 9.792 22.312 9.792 22.216C9.792 22.1093 9.84533 22.0027 9.952 21.896C10.048 21.7787 10.192 21.6773 10.384 21.592C10.8853 21.368 11.3333 21.192 11.728 21.064C12.304 20.072 12.9173 18.9467 13.568 17.688C14.3147 16.248 14.944 15.1227 15.456 14.312C15.488 14.2693 15.5307 14.2267 15.584 14.184L15.568 14.104C15.568 13.912 15.7013 13.7413 15.968 13.592C16.2453 13.432 16.5227 13.352 16.8 13.352C17.1413 13.352 17.3173 13.48 17.328 13.736L17.376 14.808C17.472 17.3787 17.5947 19.544 17.744 21.304C17.904 23.0533 18.1867 24.7067 18.592 26.264ZM27.4586 24.264C27.832 23.9867 28.1146 23.6773 28.3066 23.336C28.5093 22.984 28.6106 22.632 28.6106 22.28C28.6106 21.9387 28.5093 21.6133 28.3066 21.304C28.104 20.984 27.8 20.7013 27.3946 20.456C26.5733 19.9653 25.672 19.72 24.6906 19.72C23.8586 19.72 23.0746 19.896 22.3386 20.248C22.0826 21.4747 21.72 23.3253 21.2506 25.8V25.832C22.616 25.7787 23.7946 25.6507 24.7866 25.448C25.7893 25.2453 26.68 24.8507 27.4586 24.264ZM25.9866 15.72C25.8586 15.0267 25.4373 14.68 24.7226 14.68C24.3813 14.68 23.9866 14.76 23.5386 14.92C23.336 15.752 23.0533 17 22.6906 18.664C23.512 18.4613 24.2693 18.12 24.9626 17.64C25.6666 17.16 26.0186 16.6107 26.0186 15.992C26.0186 15.9387 26.008 15.848 25.9866 15.72ZM28.0826 19.192C28.7546 19.4907 29.2826 19.88 29.6666 20.36C30.0613 20.84 30.2586 21.368 30.2586 21.944C30.2586 22.4987 30.0773 23.0427 29.7146 23.576C28.8613 24.8453 27.5866 25.736 25.8906 26.248C24.2053 26.76 22.3653 27.016 20.3706 27.016C19.8373 27.016 19.3306 27 18.8506 26.968C18.6053 26.9573 18.4826 26.8827 18.4826 26.744C18.4826 26.5947 18.6106 26.4187 18.8666 26.216C19.1333 26.0133 19.3573 25.9013 19.5386 25.88C20.1573 22.5733 20.872 19.224 21.6826 15.832C21.5546 15.864 21.416 15.88 21.2666 15.88C21.096 15.88 20.952 15.8587 20.8346 15.816C20.728 15.7733 20.6746 15.704 20.6746 15.608C20.6746 15.4907 20.7706 15.3467 20.9626 15.176C21.2186 14.952 21.576 14.712 22.0346 14.456C22.0346 14.424 22.0453 14.376 22.0666 14.312C22.12 14.12 22.28 13.9547 22.5466 13.816C22.824 13.6773 23.0906 13.608 23.3466 13.608C23.5493 13.608 23.6773 13.6507 23.7306 13.736C24.3173 13.576 24.8346 13.496 25.2826 13.496C26.4453 13.496 27.1973 13.9653 27.5386 14.904C27.6346 15.16 27.6826 15.4107 27.6826 15.656C27.6826 16.2 27.48 16.7227 27.0746 17.224C26.68 17.7253 26.152 18.184 25.4906 18.6C26.4186 18.632 27.2826 18.8293 28.0826 19.192Z" fill="#2F274C"/>
</svg>
