<svg width="198" height="94" viewBox="0 0 198 94" fill="none" xmlns="http://www.w3.org/2000/svg">
<path d="M55.0983 62.2087C55.0983 60.5778 54.564 59.3093 53.4954 58.222C52.4267 57.2253 50.9128 56.6817 48.9536 56.6817C48.1521 56.6817 47.4397 56.6817 46.9054 56.6817C46.3711 56.6817 45.9258 56.6817 45.6586 56.6817V66.286C45.6586 67.1015 45.9258 67.7357 46.6382 68.0982C47.2616 68.5512 48.1521 68.7324 49.3098 68.7324C51.18 68.7324 52.6048 68.1888 53.6735 67.1015C54.564 65.9236 55.0983 64.2927 55.0983 62.2087ZM52.5158 53.4198C52.961 52.8762 53.3173 52.2419 53.4954 51.6077C53.6735 50.9734 53.7625 50.158 53.7625 49.2519C53.7625 47.7116 53.4063 46.5337 52.6048 45.7182C51.8033 44.8121 50.5566 44.4497 48.7755 44.4497C48.4193 44.4497 47.885 44.4497 47.2616 44.4497C46.6382 44.4497 46.1039 44.4497 45.7477 44.4497V54.9601H48.1521C49.2208 54.9601 50.1113 54.7789 50.8237 54.5977C51.4471 54.4165 52.0705 53.9635 52.5158 53.4198ZM57.0575 57.5877C57.859 58.1314 58.4824 58.7656 59.0167 59.6717C59.551 60.5778 59.8182 61.5744 59.8182 62.8429C59.8182 64.1114 59.551 65.1987 59.0167 66.1954C58.4824 67.1015 57.7699 67.9169 56.8794 68.4606C56.0779 69.0948 55.0983 69.4573 54.0297 69.8197C52.961 70.0915 51.8924 70.2727 50.7347 70.2727H38V68.9136C38.2672 68.9136 38.7124 68.823 39.3358 68.7324C39.9592 68.6418 40.3154 68.5512 40.5826 68.4606C40.9388 68.2794 41.295 68.0982 41.4731 67.7357C41.6512 67.3733 41.7403 67.0109 41.7403 66.5578V46.9867C41.7403 46.5337 41.6512 46.1712 41.4731 45.8088C41.384 45.4464 41.0278 45.1746 40.5826 44.9934C40.2263 44.8121 39.7811 44.6309 39.3358 44.5403C38.8905 44.4497 38.4453 44.3591 38.1781 44.3591V43H50.6456C51.6252 43 52.5158 43.0906 53.4063 43.2718C54.2968 43.453 55.0983 43.8155 55.8998 44.2685C56.6122 44.7215 57.2356 45.3558 57.6809 46.0806C58.2152 46.8055 58.3933 47.8022 58.3933 48.8895C58.3933 49.7955 58.2152 50.7016 57.859 51.4265C57.5028 52.1513 57.0575 52.8762 56.4341 53.3292C55.8108 53.8728 55.1874 54.3259 54.3859 54.5977C53.6735 54.9601 52.872 55.232 51.9814 55.4132V55.7756C52.7829 55.8662 53.5844 56.0474 54.564 56.4098C55.4545 56.5911 56.3451 57.0441 57.0575 57.5877Z" fill="#D1AB67"/>
<path d="M189.769 61.5419L186.671 53.6211L183.662 61.5419H189.769ZM197.823 69.9127H189.503V68.9226C190.211 68.8326 190.831 68.7426 191.362 68.6526C191.893 68.4725 192.07 68.2925 192.07 68.1125C192.07 68.0225 192.07 67.9325 192.07 67.7525C192.07 67.6625 191.981 67.4824 191.981 67.3924L190.3 62.802H183.308C183.042 63.5221 182.865 64.0621 182.688 64.5121C182.511 65.0522 182.334 65.5022 182.246 65.8623C182.157 66.3123 182.069 66.5824 181.98 66.8524C181.892 67.1224 181.892 67.3024 181.892 67.4824C181.892 67.8425 182.157 68.2025 182.777 68.3825C183.396 68.5626 184.016 68.7426 184.812 68.7426V69.7327H177.289V68.7426C177.555 68.7426 177.82 68.6526 178.174 68.5626C178.528 68.4725 178.882 68.3825 179.059 68.2025C179.414 67.9325 179.768 67.6625 179.945 67.3924C180.21 67.1224 180.387 66.6724 180.564 66.2223C181.538 63.7021 182.688 60.8218 183.927 57.5815C185.166 54.4311 186.228 51.5509 187.202 49.1206H188.353L195.079 66.6724C195.256 67.0324 195.345 67.3924 195.61 67.5725C195.787 67.8425 196.053 68.0225 196.318 68.2925C196.495 68.4725 196.849 68.5626 197.115 68.6526C197.38 68.7426 197.734 68.8326 198 68.8326V69.9127H197.823ZM176.404 69.9127H167.554V68.9226C167.908 68.9226 168.262 68.8326 168.793 68.8326C169.324 68.7426 169.589 68.6526 169.855 68.5626C170.12 68.3825 170.386 68.2025 170.474 67.9325C170.651 67.6625 170.651 67.3924 170.651 67.0324V52.1809H170.474L163.659 69.5527H162.951L156.402 51.8209H156.225V63.9721C156.225 65.1422 156.313 66.0423 156.49 66.6724C156.667 67.3024 156.845 67.7525 157.199 68.0225C157.376 68.2025 157.818 68.3825 158.438 68.5626C159.146 68.7426 159.5 68.8326 159.677 68.8326V69.8227H151.623V68.8326C152.065 68.8326 152.508 68.7426 152.95 68.6526C153.393 68.5626 153.747 68.3825 154.012 68.1125C154.366 67.8425 154.632 67.3924 154.72 66.9424C154.809 66.4023 154.897 65.4122 154.897 64.1521V53.7111C154.897 53.081 154.809 52.631 154.72 52.1809C154.543 51.8209 154.366 51.4608 154.101 51.2808C153.835 51.0108 153.393 50.8308 153.039 50.6508C152.596 50.5608 152.154 50.4707 151.8 50.4707V49.4806H158.615L164.279 64.7822L169.147 52.0009C169.324 51.5509 169.501 51.0108 169.589 50.5608C169.766 50.0207 169.766 49.7507 169.766 49.5707H176.316V50.5608C176.05 50.5608 175.696 50.6508 175.342 50.6508C174.9 50.7408 174.634 50.8308 174.457 50.9208C174.103 51.0108 173.926 51.1908 173.838 51.4608C173.749 51.7309 173.661 52.0009 173.661 52.3609V67.0324C173.661 67.3924 173.749 67.6625 173.838 67.8425C173.926 68.0225 174.192 68.2925 174.457 68.4725C174.634 68.5626 174.988 68.6526 175.342 68.7426C175.785 68.8326 176.05 68.9226 176.316 68.9226V69.9127H176.404ZM149.853 69.9127H140.825V68.9226C141.09 68.9226 141.444 68.8326 141.887 68.8326C142.418 68.8326 142.684 68.7426 142.861 68.6526C143.215 68.5626 143.392 68.3825 143.569 68.1125C143.746 67.8425 143.746 67.5725 143.746 67.2124V52.4509C143.746 52.0909 143.657 51.8209 143.569 51.6409C143.48 51.4608 143.215 51.1908 142.861 51.1008C142.595 51.0108 142.241 50.8308 141.798 50.7408C141.356 50.6508 141.09 50.5608 140.736 50.5608V49.5707H149.764V50.5608C149.499 50.5608 149.144 50.5608 148.702 50.6508C148.259 50.7408 147.994 50.7408 147.64 50.9208C147.286 51.0108 147.02 51.1908 146.932 51.4608C146.843 51.7309 146.755 52.0009 146.755 52.2709V67.0324C146.755 67.3924 146.843 67.6625 146.932 67.8425C147.109 68.1125 147.286 68.2925 147.64 68.4725C147.817 68.5626 148.171 68.6526 148.613 68.7426C149.056 68.8326 149.41 68.9226 149.764 68.9226V69.9127H149.853ZM137.285 60.5518C137.727 61.0018 137.993 61.5419 138.258 62.0819C138.435 62.712 138.524 63.342 138.524 64.0621C138.524 65.8623 137.816 67.3924 136.577 68.4725C135.249 69.6427 133.656 70.2727 131.709 70.2727C130.824 70.2727 129.939 70.0927 129.054 69.8227C128.169 69.5527 127.372 69.1926 126.752 68.8326L126.133 69.9127H124.982L124.805 62.982H125.956C126.221 63.7921 126.487 64.6022 126.752 65.3222C127.107 66.0423 127.461 66.6724 127.992 67.3024C128.523 67.8425 129.054 68.2925 129.673 68.6526C130.293 69.0126 131.089 69.1926 131.974 69.1926C132.594 69.1926 133.213 69.1026 133.656 68.9226C134.098 68.7426 134.541 68.4725 134.807 68.2025C135.161 67.9325 135.338 67.4824 135.515 67.1224C135.692 66.6724 135.692 66.2223 135.692 65.6823C135.692 64.8722 135.426 64.0621 134.984 63.432C134.541 62.712 133.833 62.1719 132.948 61.8119C132.328 61.5419 131.62 61.2718 130.824 61.0018C130.027 60.7318 129.319 60.3717 128.788 60.1917C127.638 59.6517 126.752 59.0216 126.133 58.1215C125.513 57.3114 125.159 56.1413 125.159 54.7912C125.159 54.0711 125.336 53.261 125.602 52.631C125.867 52.0009 126.31 51.3708 126.929 50.8308C127.461 50.2907 128.08 49.9307 128.877 49.6607C129.585 49.3906 130.381 49.2106 131.178 49.2106C132.063 49.2106 132.948 49.3906 133.656 49.6607C134.364 49.9307 135.072 50.2907 135.692 50.6508L136.311 49.6607H137.462L137.55 56.4113H136.4C136.223 55.6913 135.957 54.8812 135.692 54.1611C135.426 53.441 135.072 52.811 134.718 52.2709C134.364 51.7309 133.833 51.2808 133.213 50.9208C132.594 50.5608 131.886 50.3807 131.089 50.3807C130.204 50.3807 129.408 50.6508 128.788 51.2808C128.169 51.8209 127.815 52.541 127.815 53.441C127.815 54.3411 127.992 55.0612 128.434 55.6913C128.877 56.2313 129.408 56.6814 130.204 57.1314C130.912 57.4915 131.532 57.7615 132.24 58.0315C132.948 58.3015 133.567 58.5716 134.187 58.7516C134.718 59.0216 135.249 59.2916 135.78 59.5617C136.311 59.8317 136.931 60.1017 137.285 60.5518ZM121.088 60.5518C121.531 61.0018 121.796 61.5419 122.062 62.0819C122.239 62.712 122.327 63.342 122.327 64.0621C122.327 65.8623 121.619 67.3924 120.38 68.4725C119.052 69.6427 117.459 70.2727 115.512 70.2727C114.627 70.2727 113.742 70.0927 112.857 69.8227C111.972 69.5527 111.175 69.1926 110.556 68.8326L109.936 69.9127H108.786L108.609 62.982H109.759C110.025 63.7921 110.29 64.6022 110.556 65.3222C110.91 66.0423 111.264 66.6724 111.795 67.3024C112.326 67.8425 112.857 68.2925 113.477 68.6526C114.185 69.0126 114.893 69.1926 115.778 69.1926C116.397 69.1926 117.017 69.1026 117.459 68.9226C117.902 68.7426 118.344 68.4725 118.61 68.2025C118.964 67.9325 119.141 67.4824 119.318 67.1224C119.495 66.6724 119.495 66.2223 119.495 65.6823C119.495 64.8722 119.229 64.0621 118.787 63.432C118.344 62.712 117.636 62.1719 116.751 61.8119C116.132 61.5419 115.424 61.2718 114.627 61.0018C113.831 60.7318 113.123 60.3717 112.592 60.1917C111.441 59.6517 110.556 59.0216 109.936 58.1215C109.317 57.3114 108.963 56.1413 108.963 54.7912C108.963 54.0711 109.14 53.261 109.405 52.631C109.759 51.9109 110.113 51.3708 110.733 50.8308C111.264 50.2907 111.883 49.9307 112.68 49.6607C113.388 49.3906 114.185 49.2106 114.981 49.2106C115.866 49.2106 116.751 49.3906 117.459 49.6607C118.167 49.9307 118.875 50.2907 119.495 50.6508L120.115 49.6607H121.265L121.354 56.4113H120.203C120.026 55.6913 119.761 54.8812 119.495 54.1611C119.229 53.441 118.875 52.811 118.521 52.2709C118.167 51.7309 117.636 51.2808 117.017 50.9208C116.397 50.5608 115.689 50.3807 114.893 50.3807C114.008 50.3807 113.211 50.6508 112.592 51.2808C111.972 51.8209 111.618 52.541 111.618 53.441C111.618 54.3411 111.795 55.0612 112.238 55.6913C112.68 56.2313 113.211 56.6814 114.008 57.1314C114.716 57.4915 115.335 57.7615 116.043 58.0315C116.751 58.3015 117.371 58.5716 117.99 58.7516C118.521 59.0216 119.052 59.2916 119.584 59.5617C120.115 59.8317 120.734 60.1017 121.088 60.5518ZM103.652 45.7903C103.21 45.9703 102.59 46.3303 101.705 46.6904C100.82 47.1404 99.8467 47.5905 98.6961 48.1305L98.2536 47.5905C99.1386 46.7804 99.8467 46.0603 100.378 45.5203C100.909 44.9802 101.44 44.4401 101.971 43.9001C102.236 43.5401 102.59 43.36 102.767 43.18C103.033 43 103.298 43 103.564 43C103.918 43 104.272 43.09 104.449 43.36C104.715 43.6301 104.803 43.9001 104.803 44.1701C104.803 44.6202 104.715 44.8902 104.449 45.1602C104.272 45.4302 104.006 45.6103 103.652 45.7903ZM106.131 69.9127H97.103V68.9226C97.3685 68.9226 97.7225 68.8326 98.1651 68.8326C98.6961 68.8326 98.9616 68.7426 99.1386 68.6526C99.4927 68.5626 99.6697 68.3825 99.8467 68.1125C100.024 67.8425 100.024 67.5725 100.024 67.2124V52.4509C100.024 52.0909 99.9352 51.8209 99.8467 51.6409C99.7582 51.4608 99.4927 51.1908 99.1386 51.1008C98.8731 51.0108 98.5191 50.8308 98.0766 50.7408C97.634 50.6508 97.3685 50.5608 97.0145 50.5608V49.5707H106.042V50.5608C105.777 50.5608 105.423 50.5608 104.98 50.6508C104.537 50.7408 104.272 50.7408 103.918 50.9208C103.564 51.0108 103.298 51.1908 103.21 51.4608C103.121 51.7309 103.033 52.0009 103.033 52.2709V67.0324C103.033 67.3924 103.121 67.6625 103.21 67.8425C103.387 68.1125 103.564 68.2925 103.918 68.4725C104.095 68.5626 104.449 68.6526 104.892 68.7426C105.334 68.8326 105.688 68.9226 106.042 68.9226V69.9127H106.131ZM95.9524 63.7921L95.5099 69.8227H79.9328V68.8326C80.1984 68.8326 80.4639 68.7426 80.9064 68.7426C81.3489 68.6526 81.6145 68.6526 81.7915 68.5626C82.057 68.4725 82.3225 68.2925 82.411 68.0225C82.4995 67.7525 82.588 67.4824 82.588 67.1224V52.541C82.588 52.1809 82.4995 51.9109 82.411 51.6409C82.3225 51.3708 82.057 51.1908 81.703 51.0108C81.5259 50.9208 81.1719 50.7408 80.8179 50.6508C80.4639 50.5608 80.1099 50.4707 79.8443 50.4707V49.4806H88.2524V50.4707C87.9869 50.4707 87.6329 50.5608 87.2788 50.6508C86.8363 50.7408 86.5708 50.8308 86.3938 50.9208C86.0397 51.0108 85.8627 51.1908 85.6857 51.5509C85.5972 51.8209 85.5087 52.0909 85.5087 52.4509V66.1323C85.5087 66.7624 85.5087 67.2124 85.5972 67.5725C85.6857 67.9325 85.7742 68.2025 86.0398 68.3825C86.3053 68.5626 86.5708 68.6526 87.0133 68.7426C87.4558 68.8326 88.0754 68.8326 88.8719 68.8326C89.226 68.8326 89.58 68.8326 89.934 68.8326C90.288 68.8326 90.6421 68.7426 90.9961 68.7426C91.3501 68.7426 91.6156 68.5626 91.8811 68.4725C92.1467 68.3825 92.3237 68.2025 92.5007 68.1125C92.8547 67.6625 93.2972 67.0324 93.8283 66.1323C94.3593 65.2322 94.7133 64.5122 94.8903 63.9721H95.9524V63.7921ZM77.8087 63.8821L77.4547 69.9127H60.8156V68.9226C61.0811 68.9226 61.5236 68.8326 61.9661 68.8326C62.4972 68.7426 62.7627 68.6526 62.8512 68.6526C63.2052 68.4725 63.3822 68.2925 63.4707 68.1125C63.5592 67.9325 63.6477 67.5725 63.6477 67.2124V52.4509C63.6477 52.0909 63.5592 51.8209 63.4707 51.6409C63.3822 51.3708 63.1167 51.1908 62.7627 51.0108C62.4972 50.9208 62.1431 50.7408 61.7891 50.6508C61.3466 50.5608 60.9926 50.4707 60.7271 50.4707V49.4806H76.2156V54.4311H75.1535C74.9765 53.7111 74.534 52.901 73.9144 52.0909C73.2949 51.2808 72.6754 50.8308 72.1443 50.7408C71.8788 50.7408 71.5248 50.6508 71.0822 50.6508C70.6397 50.6508 70.2857 50.6508 69.7547 50.6508H66.5684V58.7516H68.7811C69.4891 58.7516 70.0202 58.6616 70.3742 58.5716C70.7282 58.3915 70.9937 58.2115 71.2593 57.8515C71.4363 57.5815 71.6133 57.2214 71.7903 56.7714C71.9673 56.3213 72.0558 55.8713 72.0558 55.5112H73.1179V63.5221H72.0558C72.0558 63.072 71.8788 62.622 71.7903 62.0819C71.6133 61.5419 71.4363 61.1818 71.2593 61.0018C70.9937 60.6418 70.6397 60.3717 70.2857 60.2817C69.9317 60.1917 69.4006 60.1017 68.7811 60.1017H66.5684V66.2223C66.5684 66.8524 66.6569 67.3024 66.6569 67.6625C66.7455 68.0225 66.9225 68.2925 67.188 68.4725C67.4535 68.6526 67.8075 68.7426 68.1615 68.8326C68.6041 68.9226 69.2236 68.9226 70.0202 68.9226C70.2857 68.9226 70.7282 68.9226 71.2593 68.9226C71.7903 68.9226 72.1443 68.9226 72.4983 68.8326C72.8524 68.8326 73.2064 68.7426 73.6489 68.6526C74.0029 68.5626 74.2685 68.3825 74.4455 68.2025C74.888 67.7525 75.3305 67.0324 75.7731 66.1323C76.2156 65.2322 76.5696 64.5121 76.6581 64.0621H77.8087V63.8821Z" fill="#D1AB67"/>
<path d="M194.267 84.7758L195.398 83.0845L197.32 82.9717L194.154 87.933C193.702 88.6095 193.363 89.1733 193.25 89.3988C193.137 89.737 193.023 89.9626 193.023 90.0753C193.023 90.3008 193.023 90.4136 193.137 90.4136C193.25 90.5263 193.363 90.5263 193.476 90.5263C193.702 90.5263 194.154 90.3008 194.606 89.9626C195.172 89.5115 195.737 88.9478 196.529 88.1585C196.755 87.933 196.981 87.5947 197.32 87.3692C197.659 87.0309 197.772 86.9182 197.885 86.9182H197.998V87.0309C197.998 87.1437 197.885 87.3692 197.659 87.5947C197.433 87.8202 197.094 88.1585 196.642 88.6095C195.624 89.6243 194.946 90.3008 194.38 90.6391C193.928 90.9774 193.476 91.0901 193.023 91.0901C192.684 91.0901 192.345 90.9774 192.119 90.7518C191.893 90.5263 191.78 90.1881 191.78 89.737C191.78 89.6243 191.78 89.5115 191.78 89.286C191.78 89.0605 191.893 88.835 191.893 88.6095C191.214 89.3988 190.649 90.0753 189.971 90.5263C189.292 90.9774 188.727 91.2029 188.275 91.2029C187.822 91.2029 187.37 90.9774 187.031 90.4136C186.692 89.8498 186.579 89.1733 186.579 88.2712C186.579 88.0457 186.579 87.8202 186.692 87.5947C186.692 87.3692 186.805 87.1437 186.805 86.9182C186.692 87.1437 186.579 87.2564 186.465 87.3692L186.239 87.4819H186.126V87.3692C186.126 87.2564 186.239 87.1437 186.465 86.8054C186.692 86.4671 187.031 86.1289 187.483 85.7906C188.388 84.8885 189.292 84.212 190.197 83.761C191.101 83.1972 191.893 82.9717 192.684 82.9717C193.137 82.9717 193.476 83.0845 193.815 83.31C194.041 83.5355 194.267 83.8737 194.267 84.212V84.5503C194.267 84.5503 194.267 84.663 194.267 84.7758ZM188.162 89.6243C188.162 89.9626 188.275 90.0753 188.388 90.3008C188.501 90.4136 188.727 90.5263 188.953 90.5263C189.292 90.5263 189.631 90.3008 190.084 90.0753C190.536 89.737 191.101 89.286 191.554 88.7222C192.345 87.8202 192.91 87.0309 193.363 86.2416C193.815 85.4523 194.041 84.7758 194.041 84.212C194.041 83.9865 193.928 83.761 193.815 83.5355C193.589 83.31 193.363 83.31 193.137 83.31C192.684 83.31 192.119 83.5355 191.667 83.8738C191.214 84.212 190.536 84.8886 190.084 85.5651C189.518 86.3544 189.179 87.0309 188.84 87.7074C188.275 88.4967 188.162 89.1733 188.162 89.6243ZM186.352 78.5742C186.352 78.236 186.465 78.0105 186.692 77.6722C186.918 77.4467 187.257 77.2212 187.483 77.2212C187.709 77.2212 187.935 77.3339 188.048 77.4467C188.162 77.5594 188.275 77.7849 188.275 78.0105C188.275 78.3487 188.162 78.5742 187.935 78.9125C187.709 79.138 187.483 79.3635 187.144 79.3635C186.918 79.3635 186.692 79.2508 186.579 79.138C186.465 78.9125 186.352 78.7997 186.352 78.5742ZM182.847 84.663C182.282 85.2268 181.83 85.7906 181.264 86.3544C180.699 87.0309 180.36 87.3692 180.247 87.3692H180.134V87.2564C180.134 87.1437 180.473 86.6926 181.038 86.0161C181.717 85.2268 182.621 84.3248 183.752 83.1972L185.787 83.0845L182.96 87.4819C182.395 88.384 181.943 89.0605 181.83 89.3988C181.604 89.737 181.604 89.9626 181.604 90.1881C181.604 90.3008 181.717 90.4136 181.717 90.5263C181.83 90.6391 181.943 90.7518 182.056 90.7518C182.395 90.7518 182.847 90.5263 183.413 90.1881C183.978 89.8498 184.543 89.1733 185.448 88.2712C185.674 88.0457 185.787 87.8202 186.126 87.5947C186.465 87.1437 186.692 86.9182 186.805 86.9182H186.918L187.031 87.0309C187.031 87.1437 186.918 87.2564 186.805 87.4819C186.579 87.7074 186.239 88.0457 185.674 88.6095C184.769 89.6243 183.978 90.1881 183.526 90.5263C183.073 90.8646 182.621 91.0901 182.169 91.0901C181.717 91.0901 181.377 90.8646 181.038 90.6391C180.699 90.3008 180.586 89.8498 180.586 89.286C180.586 88.4967 181.264 87.2564 182.508 85.2268C182.734 85.0013 182.734 84.7758 182.847 84.663ZM171.314 90.8646L175.046 85.3396L175.159 85.1141C175.724 84.3248 175.95 83.8737 175.95 83.5355C175.95 83.4227 175.95 83.31 175.837 83.1972C175.724 83.0845 175.611 83.0845 175.498 83.0845C175.159 83.0845 174.819 83.31 174.367 83.6482C173.802 84.0993 173.123 84.7758 172.219 85.7906C171.993 86.0161 171.767 86.2416 171.54 86.5799C171.201 87.0309 170.975 87.1437 170.862 87.1437H170.749V87.0309C170.749 86.9181 170.749 86.8054 170.862 86.6926C170.975 86.5799 171.088 86.3544 171.427 86.0161L172.332 85.0013C173.236 83.9865 173.915 83.4227 174.367 83.0845C174.819 82.7462 175.272 82.5207 175.611 82.5207C175.95 82.5207 176.176 82.6334 176.402 82.8589C176.629 83.0845 176.742 83.4227 176.742 83.761C176.742 84.212 176.629 84.663 176.515 85.1141C176.289 85.5651 175.95 86.2416 175.385 87.2564C176.402 86.2416 177.194 85.5651 177.759 85.0013C178.098 83.9865 178.438 83.4227 178.777 83.0845C179.116 82.7462 179.568 82.5207 180.021 82.5207C180.247 82.5207 180.36 82.5207 180.473 82.6334C180.586 82.7462 180.699 82.8589 180.699 82.9717C180.699 83.31 180.134 83.8737 179.003 84.663C178.777 84.7758 178.664 84.8886 178.551 85.0013C178.098 85.3396 177.872 85.6778 177.646 86.0161C177.42 86.3544 177.307 86.6926 177.307 87.1437C177.307 87.3692 177.42 87.5947 177.533 87.7074C177.646 87.8202 177.872 87.933 178.098 87.933C178.551 87.933 179.003 87.7074 179.568 87.2564C180.134 86.8054 180.36 86.5799 180.36 86.5799L180.473 86.6926V86.8054C180.473 87.0309 180.247 87.3692 179.681 87.8202C179.116 88.2712 178.664 88.4967 178.211 88.4967C177.872 88.4967 177.533 88.384 177.307 88.1585C177.081 87.933 176.968 87.7074 176.968 87.3692C176.968 87.2564 176.968 87.0309 177.081 86.8054C177.194 86.5799 177.194 86.3544 177.42 86.0161C176.855 86.4671 176.176 87.1437 175.498 87.8202C174.819 88.4967 174.028 89.5115 173.123 90.6391L171.314 90.8646ZM163.513 86.8054C163.286 87.0309 163.173 87.1437 163.173 87.2564C163.06 87.3692 162.947 87.3692 162.947 87.3692H162.834V87.2564C162.834 87.1437 162.947 87.0309 163.173 86.8054C163.4 86.5799 163.626 86.2416 163.965 85.9033C164.869 84.8885 165.774 84.212 166.565 83.761C167.47 83.1972 168.375 82.9717 169.166 82.9717C169.618 82.9717 170.071 83.0845 170.297 83.31C170.636 83.5355 170.749 83.8737 170.749 84.212C170.749 85.0013 170.184 85.7906 169.166 86.4671C168.148 87.2564 166.792 87.8202 164.982 88.1585C164.869 88.4967 164.869 88.7222 164.869 88.9478C164.869 89.0605 164.869 89.286 164.869 89.3988C164.869 89.8498 164.982 90.1881 165.209 90.4136C165.435 90.6391 165.661 90.7518 166 90.7518C166.452 90.7518 167.018 90.5263 167.583 90.3008C168.148 89.9626 168.827 89.3988 169.505 88.7222C169.844 88.384 170.184 88.0457 170.523 87.5947C170.862 87.1437 171.088 87.0309 171.201 87.0309H171.314L171.427 87.1437C171.427 87.2564 171.314 87.3692 171.201 87.5947C170.975 87.8202 170.636 88.2712 169.957 88.835C169.166 89.6243 168.375 90.3008 167.809 90.6391C167.131 90.9774 166.565 91.2029 166 91.2029C165.322 91.2029 164.756 90.8646 164.304 90.3008C163.852 89.737 163.626 88.9478 163.626 88.1585C163.626 87.933 163.626 87.8202 163.739 87.5947C163.4 87.2564 163.4 87.0309 163.513 86.8054ZM164.982 87.7074C166.226 87.3692 167.357 86.9182 168.261 86.0161C169.166 85.2268 169.618 84.4375 169.618 83.761C169.618 83.5355 169.505 83.4227 169.505 83.31C169.392 83.1972 169.279 83.0845 169.166 83.0845C168.601 83.0845 167.809 83.5355 167.018 84.4375C166.113 85.3396 165.435 86.4671 164.982 87.7074ZM159.103 84.663C158.538 85.2268 158.085 85.7906 157.52 86.3544C156.955 87.0309 156.615 87.3692 156.502 87.3692H156.389V87.2564C156.389 87.0309 156.955 86.3544 158.085 85.2268C159.216 84.0993 160.007 83.1972 160.46 82.4079L161.703 80.6038H160.347L160.573 80.1528H161.93L163.626 77.4467L165.435 77.3339L163.626 80.2656H166.905L166.678 80.7166H163.399L159.103 87.4819C158.651 88.1585 158.311 88.7222 158.085 89.1733C157.859 89.6243 157.746 89.9626 157.746 90.0753C157.746 90.1881 157.859 90.3008 157.859 90.4136C157.972 90.5263 158.085 90.6391 158.198 90.6391C158.538 90.6391 158.99 90.4136 159.442 90.0753C159.894 89.737 160.573 89.0605 161.477 88.1585C161.703 87.933 161.93 87.7074 162.156 87.3692C162.495 87.0309 162.721 86.8054 162.721 86.8054H162.834L162.947 86.9182C162.947 87.0309 162.834 87.1437 162.721 87.3692C162.495 87.5947 162.156 87.933 161.59 88.4967C160.686 89.5115 159.894 90.0753 159.442 90.4136C158.99 90.7518 158.538 90.9774 158.085 90.9774C157.633 90.9774 157.294 90.7518 156.955 90.5263C156.615 90.1881 156.502 89.737 156.502 89.1733C156.502 88.384 157.181 87.1437 158.424 85.1141C158.99 85.0013 159.103 84.7758 159.103 84.663ZM152.884 84.663C152.319 85.2268 151.867 85.7906 151.301 86.3544C150.736 87.0309 150.397 87.3692 150.284 87.3692H150.17V87.2564C150.17 87.1437 150.17 87.0309 150.284 86.9182C150.397 86.8054 150.51 86.5799 150.849 86.2416L151.753 85.2268C152.319 84.5503 152.884 83.9865 153.336 83.5355C153.789 82.9717 154.128 82.6334 154.241 82.4079L159.894 73.7257L161.703 73.5002L152.884 87.3692C152.319 88.2712 151.867 88.9478 151.753 89.286C151.527 89.6243 151.527 89.8498 151.527 90.0753C151.527 90.1881 151.64 90.4136 151.64 90.4136C151.753 90.5263 151.867 90.6391 151.98 90.6391C152.319 90.6391 152.771 90.5263 153.11 90.1881C153.563 89.8498 154.354 89.1733 155.372 88.1585C155.598 87.933 155.824 87.7074 156.163 87.3692C156.502 87.0309 156.615 86.9182 156.728 86.9182H156.842L156.955 87.0309C156.955 87.1437 156.842 87.2564 156.728 87.4819C156.502 87.7074 156.163 88.0457 155.598 88.6095C154.693 89.6243 153.902 90.1881 153.449 90.5263C152.997 90.8646 152.545 91.0901 152.093 91.0901C151.64 91.0901 151.301 90.8646 150.962 90.6391C150.623 90.3008 150.51 89.8498 150.51 89.286C150.51 88.4967 151.188 87.1437 152.545 85.0013L152.884 84.663ZM146.778 84.7758L147.909 83.0845L149.831 82.9717L146.665 87.933C146.213 88.6095 145.874 89.1733 145.761 89.3988C145.648 89.737 145.535 89.9626 145.535 90.0753C145.535 90.3008 145.535 90.4136 145.648 90.4136C145.761 90.5263 145.874 90.5263 145.987 90.5263C146.213 90.5263 146.665 90.3008 147.118 89.9626C147.683 89.5115 148.248 88.9478 149.04 88.1585C149.266 87.933 149.492 87.5947 149.831 87.3692C150.17 87.0309 150.284 86.9182 150.397 86.9182H150.51V87.0309C150.51 87.1437 150.397 87.3692 150.17 87.5947C149.944 87.8202 149.605 88.1585 149.153 88.6095C148.135 89.6243 147.457 90.3008 146.891 90.6391C146.439 90.9774 145.987 91.0901 145.535 91.0901C145.195 91.0901 144.856 90.9774 144.63 90.7518C144.404 90.5263 144.291 90.1881 144.291 89.737C144.291 89.6243 144.291 89.5115 144.291 89.286C144.291 89.0605 144.404 88.835 144.404 88.6095C143.726 89.3988 143.16 90.0753 142.482 90.5263C141.803 90.9774 141.238 91.2029 140.786 91.2029C140.334 91.2029 139.881 90.9774 139.542 90.4136C139.203 89.8498 139.09 89.1733 139.09 88.2712C139.09 88.0457 139.09 87.8202 139.203 87.5947C139.203 87.3692 139.316 87.1437 139.316 86.9182C139.203 87.1437 139.09 87.2564 138.977 87.3692L138.751 87.4819H138.637V87.3692C138.637 87.2564 138.751 87.1437 138.977 86.8054C139.203 86.4671 139.542 86.1289 139.994 85.7906C140.899 84.8885 141.803 84.212 142.708 83.761C143.613 83.1972 144.404 82.9717 145.195 82.9717C145.648 82.9717 145.987 83.0845 146.326 83.31C146.552 83.5355 146.778 83.8737 146.778 84.212V84.5503C146.778 84.5503 146.778 84.663 146.778 84.7758ZM140.673 89.6243C140.673 89.9626 140.786 90.0753 140.899 90.3008C141.012 90.4136 141.238 90.5263 141.464 90.5263C141.803 90.5263 142.143 90.3008 142.595 90.0753C143.047 89.737 143.613 89.286 144.065 88.7222C144.856 87.8202 145.422 87.0309 145.874 86.2416C146.326 85.4523 146.552 84.7758 146.552 84.212C146.552 83.9865 146.439 83.761 146.326 83.5355C146.1 83.31 145.874 83.31 145.648 83.31C145.195 83.31 144.63 83.5355 144.178 83.8738C143.612 84.3248 143.047 84.8886 142.595 85.5651C142.03 86.3544 141.69 87.0309 141.351 87.7074C140.786 88.4967 140.673 89.1733 140.673 89.6243ZM122.129 90.9774L125.861 85.4523L125.974 85.2268C126.539 84.4375 126.765 83.9865 126.765 83.6482C126.765 83.5355 126.765 83.4227 126.652 83.31C126.539 83.1972 126.426 83.1972 126.313 83.1972C125.974 83.1972 125.635 83.4227 125.182 83.761C124.617 84.212 123.939 84.8885 123.034 85.9033C122.808 86.1289 122.582 86.3544 122.356 86.6926C122.016 87.1437 121.79 87.2564 121.677 87.2564H121.564V87.1437C121.564 87.0309 121.564 86.9182 121.677 86.8054C121.79 86.6926 121.903 86.4671 122.243 86.1289L123.147 85.1141C124.052 84.0993 124.73 83.5355 125.182 83.1972C125.635 82.859 126.087 82.6334 126.426 82.6334C126.765 82.6334 127.104 82.7462 127.218 82.9717C127.444 83.1972 127.557 83.5355 127.557 83.9865C127.557 84.4375 127.444 84.8885 127.331 85.3396C127.104 85.7906 126.878 86.3544 126.426 87.0309C127.67 85.4523 128.687 84.3248 129.479 83.6482C130.27 82.9717 130.836 82.6334 131.401 82.6334C131.74 82.6334 131.966 82.7462 132.193 82.9717C132.419 83.1972 132.532 83.5355 132.532 83.8738C132.532 84.3248 132.419 84.8885 132.193 85.3396C131.966 85.9033 131.74 86.3544 131.288 87.0309C132.758 85.3396 133.889 84.212 134.68 83.5355C135.358 82.9717 135.924 82.6334 136.376 82.6334C136.715 82.6334 136.941 82.7462 137.168 83.0845C137.394 83.31 137.507 83.6482 137.507 84.0993C137.507 84.7758 137.055 85.7906 136.037 87.1437C135.924 87.3692 135.811 87.4819 135.698 87.5947C135.132 88.2712 134.793 88.835 134.68 89.1733C134.454 89.5115 134.341 89.737 134.341 89.9626C134.341 90.1881 134.341 90.3008 134.454 90.3008C134.567 90.4136 134.68 90.4136 134.793 90.4136C135.019 90.4136 135.472 90.1881 135.924 89.737C136.489 89.286 137.055 88.7222 137.846 87.933C138.072 87.7074 138.298 87.3692 138.637 87.0309C138.977 86.6926 139.09 86.5799 139.203 86.5799L139.316 86.6926L139.429 86.8054C139.429 86.9182 138.977 87.4819 138.185 88.2712L137.959 88.4967C137.168 89.286 136.489 89.8498 135.924 90.3008C135.359 90.7518 135.019 90.8646 134.68 90.8646C134.228 90.8646 133.889 90.6391 133.662 90.3008C133.436 89.9626 133.323 89.3988 133.323 88.835C133.323 88.384 133.436 87.933 133.662 87.4819C133.889 87.0309 134.341 86.3544 135.132 85.3396C135.245 85.2268 135.358 85.0013 135.585 84.7758C136.15 84.0993 136.376 83.6482 136.376 83.4227C136.376 83.31 136.376 83.1972 136.263 83.1972C136.263 83.0845 136.15 83.0845 136.037 83.0845C135.585 83.0845 134.793 83.761 133.549 85.1141C132.306 86.4671 130.723 88.2712 128.914 90.5263L126.878 90.7518L130.61 85.2268C130.949 84.663 131.288 84.3248 131.288 84.0993C131.401 83.8737 131.514 83.6482 131.514 83.5355C131.514 83.4227 131.514 83.31 131.401 83.31C131.288 83.1972 131.175 83.1972 131.062 83.1972C130.27 83.1972 128.235 85.3396 124.73 89.6243L123.939 90.6391L122.129 90.9774ZM118.964 83.5355C118.172 84.3248 117.494 85.1141 116.702 86.0161C115.911 86.9182 115.458 87.3692 115.345 87.3692H115.232V87.2564C115.232 87.1437 116.024 86.2416 117.494 84.5503C118.059 83.8738 118.624 83.4227 118.964 82.9717C119.19 82.5207 119.303 82.2952 119.529 82.0697C119.755 81.8442 119.981 81.7314 120.207 81.7314C120.433 81.7314 120.547 81.8441 120.66 81.8441C120.773 81.9569 120.773 82.0697 120.773 82.2952C120.773 82.4079 120.66 82.6334 120.66 82.7462C120.547 82.859 120.433 82.9717 120.207 83.0845L119.981 83.1972C119.642 83.31 119.416 83.6482 119.416 84.212C119.416 84.5503 119.529 85.1141 119.755 85.9033C119.981 86.6926 119.981 87.2564 119.981 87.5947C119.981 87.933 119.981 88.1585 119.868 88.4967C119.755 88.7222 119.755 89.0605 119.529 89.286C119.981 88.835 120.433 88.384 120.886 87.8202C121.451 87.2564 121.677 87.0309 121.79 87.0309H121.903L122.016 87.1437C122.016 87.2564 121.903 87.3692 121.79 87.5947C121.564 87.8202 121.338 88.1585 120.886 88.4967C119.868 89.5115 119.077 90.1881 118.511 90.6391C117.833 90.9774 117.268 91.2029 116.589 91.2029C116.024 91.2029 115.571 91.0901 115.119 90.7518C114.78 90.4136 114.554 90.0753 114.554 89.6243C114.554 89.3988 114.667 89.1733 114.78 88.9478C115.006 88.7222 115.232 88.6095 115.458 88.6095C115.685 88.6095 115.798 88.7222 115.911 88.835C116.024 88.9478 116.137 89.0605 116.137 89.1733C116.137 89.286 116.024 89.5115 115.911 89.737C115.798 89.9626 115.685 90.1881 115.685 90.3008L115.798 90.5263C115.911 90.6391 116.024 90.6391 116.137 90.6391C116.815 90.6391 117.381 90.0753 118.059 88.835C118.737 87.5947 118.964 86.2416 118.964 84.663C118.964 84.5503 118.964 84.4375 118.964 84.212C119.077 84.0993 119.077 83.8737 118.964 83.5355ZM107.544 90.5263H107.883C108.448 90.5263 109.127 90.4136 109.692 90.1881C110.257 89.9626 110.936 89.6243 111.501 89.1733C112.406 88.4967 113.084 87.7074 113.536 86.9182C114.102 86.0161 114.328 85.1141 114.328 84.3248C114.328 83.761 114.215 83.31 113.875 82.9717C113.649 82.6334 113.197 82.5207 112.745 82.5207C112.179 82.5207 111.614 82.7462 111.049 83.1972C110.37 83.6482 109.918 84.212 109.353 84.8886C108.787 85.6778 108.335 86.4671 108.109 87.3692C107.77 88.2712 107.657 89.1733 107.657 89.9626V90.5263H107.544ZM107.091 91.0901H106.978C105.508 91.0901 104.378 90.7518 103.586 89.9626C102.795 89.1733 102.342 88.1585 102.342 86.9182C102.342 85.1141 103.021 83.5355 104.378 82.2952C105.735 80.9421 107.657 79.9273 110.144 79.2508C109.918 79.138 109.579 78.9125 109.466 78.7997C109.24 78.687 109.127 78.4615 109.014 78.236C108.674 78.3487 108.335 78.3487 107.996 78.3487C107.657 78.3487 107.431 78.3487 107.204 78.3487C105.508 78.3487 104.152 78.0105 103.134 77.2212C102.116 76.4319 101.664 75.5298 101.664 74.2895C101.664 73.0492 102.229 71.9217 103.247 71.0196C104.378 70.1176 105.621 69.7793 107.317 69.7793C108.222 69.7793 109.127 69.892 110.031 70.2303C110.823 70.5686 111.614 71.0196 112.406 71.5834C113.31 71.1324 114.102 70.9069 114.893 70.6813C115.685 70.4558 116.363 70.3431 116.928 70.3431C117.494 70.3431 117.946 70.4558 118.285 70.6813C118.624 70.9069 118.737 71.2451 118.737 71.6961C118.737 72.7109 117.946 73.8385 116.25 75.0788C114.554 76.3191 112.519 77.3339 110.031 78.0105C110.144 78.3487 110.37 78.687 110.596 78.7997C110.823 78.9125 111.275 79.0253 111.727 79.0253C111.84 79.0253 111.953 79.0253 112.179 79.0253C112.406 79.0253 112.519 79.0253 112.632 79.0253C112.858 79.0253 113.084 79.0253 113.197 79.138C113.31 79.2508 113.423 79.3635 113.423 79.4763C113.423 79.589 113.31 79.7018 113.197 79.8146C113.084 79.9273 112.858 79.9273 112.632 79.9273C112.406 79.9273 112.066 79.8146 111.614 79.8146C111.162 79.7018 110.936 79.7018 110.823 79.7018C110.37 79.7018 109.805 79.8145 109.127 80.1528C108.448 80.4911 107.77 80.8293 107.091 81.3931C106.187 82.1824 105.508 83.0845 104.943 84.0993C104.378 85.1141 104.152 86.2416 104.152 87.2564C104.152 88.1585 104.378 88.9478 104.943 89.6243C105.508 90.3008 106.074 90.6391 106.865 90.6391C106.865 90.5263 106.865 90.4136 106.865 90.1881C106.865 89.9626 106.865 89.8498 106.865 89.737C106.865 87.5947 107.431 85.6778 108.448 84.212C109.466 82.7462 110.71 81.9569 112.179 81.9569C112.858 81.9569 113.423 82.1824 113.875 82.6334C114.328 83.0845 114.554 83.6482 114.554 84.3248C114.554 86.0161 113.875 87.4819 112.519 88.835C111.162 90.1881 109.466 90.9774 107.431 91.2029C107.544 91.7666 107.544 92.2177 107.77 92.7815C107.883 93.3452 107.996 93.5707 107.996 93.6835V93.7962L107.883 93.909C107.77 93.909 107.657 93.6835 107.544 93.2325C107.431 92.6687 107.317 91.9922 107.091 91.0901ZM108.561 77.3339C108.448 77.1084 108.448 76.9957 108.448 76.8829C108.448 76.7701 108.335 76.5446 108.335 76.4319C108.335 75.6426 108.674 74.8533 109.24 74.064C109.918 73.2747 110.823 72.4854 111.953 71.9217C111.275 71.3579 110.483 70.9069 109.692 70.6813C108.9 70.3431 108.109 70.2303 107.204 70.2303C105.848 70.2303 104.604 70.5686 103.699 71.2451C102.795 71.9217 102.342 72.7109 102.342 73.7257C102.342 74.7405 102.908 75.5298 103.812 76.3191C104.717 77.1084 105.961 77.4467 107.317 77.4467C107.431 77.4467 107.544 77.4467 107.883 77.4467C108.222 77.3339 108.448 77.3339 108.561 77.3339ZM110.031 77.2212C112.293 76.7701 114.328 75.9809 115.911 74.8533C117.494 73.7257 118.398 72.7109 118.398 71.6961C118.398 71.3579 118.285 71.1324 118.059 71.0196C117.833 70.7941 117.494 70.7941 117.154 70.7941C116.702 70.7941 116.137 70.9069 115.345 71.2451C114.554 71.5834 113.989 71.9217 113.197 72.4854C113.649 72.9365 113.989 73.2747 114.102 73.5002C114.328 73.7257 114.328 73.9513 114.328 74.064V74.1768C114.215 74.1768 113.989 73.9513 113.762 73.613C113.423 73.2747 113.197 72.9365 112.971 72.7109C112.066 73.2747 111.388 73.9513 110.823 74.7405C110.257 75.5298 110.031 76.3191 110.031 77.2212Z" fill="#D1AB67"/>
<path d="M81.845 12.438C81.845 12.8113 81.7704 13.1567 81.621 13.474C81.4717 13.782 81.271 14.0527 81.019 14.286C80.767 14.51 80.473 14.6873 80.137 14.818C79.801 14.9393 79.4417 15 79.059 15H74.369V5.06H79.157C79.5024 5.06 79.815 5.13467 80.095 5.284C80.375 5.43333 80.613 5.62933 80.809 5.872C81.005 6.10533 81.1544 6.376 81.257 6.684C81.369 6.98267 81.425 7.286 81.425 7.594C81.425 8.098 81.299 8.56 81.047 8.98C80.795 9.39067 80.445 9.69867 79.997 9.904C80.5664 10.072 81.0144 10.3847 81.341 10.842C81.677 11.2993 81.845 11.8313 81.845 12.438ZM80.865 12.27C80.865 12.0273 80.823 11.794 80.739 11.57C80.655 11.3367 80.5337 11.136 80.375 10.968C80.2257 10.7907 80.0437 10.6507 79.829 10.548C79.6237 10.436 79.3997 10.38 79.157 10.38H75.349V14.146H79.059C79.311 14.146 79.5444 14.0947 79.759 13.992C79.983 13.8893 80.1744 13.754 80.333 13.586C80.501 13.4087 80.6317 13.208 80.725 12.984C80.8184 12.7507 80.865 12.5127 80.865 12.27ZM75.349 5.914V9.582H78.765C79.0077 9.582 79.2317 9.53067 79.437 9.428C79.6517 9.32533 79.8337 9.19 79.983 9.022C80.1324 8.854 80.249 8.66267 80.333 8.448C80.417 8.224 80.459 7.99067 80.459 7.748C80.459 7.496 80.417 7.258 80.333 7.034C80.2584 6.81 80.1464 6.61867 79.997 6.46C79.857 6.292 79.689 6.16133 79.493 6.068C79.297 5.96533 79.0824 5.914 78.849 5.914H75.349ZM83.6933 15V5.06H87.8933C88.3226 5.06 88.7146 5.15333 89.0693 5.34C89.4333 5.51733 89.7459 5.75533 90.0073 6.054C90.2686 6.34333 90.4693 6.67467 90.6093 7.048C90.7586 7.42133 90.8333 7.79933 90.8333 8.182C90.8333 8.546 90.7773 8.896 90.6653 9.232C90.5626 9.55867 90.4133 9.85733 90.2173 10.128C90.0306 10.3893 89.8019 10.6133 89.5313 10.8C89.2606 10.9773 88.9573 11.0987 88.6213 11.164L91.0573 15H89.9513L87.6133 11.332H84.6733V15H83.6933ZM84.6733 10.464H87.9213C88.2106 10.464 88.4719 10.4033 88.7053 10.282C88.9479 10.1513 89.1533 9.97867 89.3213 9.764C89.4893 9.54933 89.6199 9.30667 89.7133 9.036C89.8066 8.76533 89.8533 8.48067 89.8533 8.182C89.8533 7.88333 89.7973 7.59867 89.6853 7.328C89.5826 7.048 89.4379 6.80533 89.2513 6.6C89.0739 6.39467 88.8593 6.23133 88.6073 6.11C88.3646 5.98867 88.1079 5.928 87.8373 5.928H84.6733V10.464ZM95.7694 5.06H96.5954L100.725 15H99.6894L98.4014 11.892H93.9354L92.6614 15H91.6114L95.7694 5.06ZM98.1774 11.122L96.1754 6.208L94.1454 11.122H98.1774ZM103.13 6.88V15H102.15V5.06H102.906L109.486 13.334V5.074H110.466V15H109.612L103.13 6.88ZM112.965 15V5.06H116.339C117.132 5.06 117.823 5.19067 118.411 5.452C119.008 5.71333 119.503 6.068 119.895 6.516C120.296 6.964 120.595 7.49133 120.791 8.098C120.996 8.69533 121.099 9.33467 121.099 10.016C121.099 10.772 120.987 11.458 120.763 12.074C120.539 12.6807 120.217 13.2033 119.797 13.642C119.386 14.0713 118.887 14.4073 118.299 14.65C117.72 14.8833 117.067 15 116.339 15H112.965ZM120.119 10.016C120.119 9.41867 120.035 8.87267 119.867 8.378C119.699 7.874 119.451 7.44 119.125 7.076C118.807 6.712 118.415 6.432 117.949 6.236C117.482 6.03067 116.945 5.928 116.339 5.928H113.945V14.132H116.339C116.955 14.132 117.496 14.0293 117.963 13.824C118.439 13.6093 118.835 13.32 119.153 12.956C119.47 12.5827 119.708 12.1487 119.867 11.654C120.035 11.15 120.119 10.604 120.119 10.016ZM126.541 15V5.06H127.521V14.132H133.261V15H126.541ZM138.078 15.07C137.387 15.07 136.753 14.93 136.174 14.65C135.605 14.3607 135.115 13.9827 134.704 13.516C134.293 13.04 133.976 12.4987 133.752 11.892C133.528 11.2853 133.416 10.6647 133.416 10.03C133.416 9.36733 133.533 8.73267 133.766 8.126C134.009 7.51933 134.34 6.98267 134.76 6.516C135.18 6.04933 135.675 5.68067 136.244 5.41C136.813 5.13 137.429 4.99 138.092 4.99C138.783 4.99 139.413 5.13933 139.982 5.438C140.561 5.72733 141.051 6.11 141.452 6.586C141.863 7.062 142.18 7.60333 142.404 8.21C142.628 8.80733 142.74 9.41867 142.74 10.044C142.74 10.7067 142.619 11.3413 142.376 11.948C142.143 12.5547 141.816 13.0913 141.396 13.558C140.985 14.0153 140.495 14.384 139.926 14.664C139.357 14.9347 138.741 15.07 138.078 15.07ZM134.396 10.03C134.396 10.5713 134.485 11.094 134.662 11.598C134.839 12.0927 135.091 12.536 135.418 12.928C135.745 13.3107 136.132 13.6187 136.58 13.852C137.028 14.076 137.527 14.188 138.078 14.188C138.638 14.188 139.147 14.0667 139.604 13.824C140.061 13.5813 140.449 13.264 140.766 12.872C141.083 12.48 141.326 12.0367 141.494 11.542C141.671 11.0473 141.76 10.5433 141.76 10.03C141.76 9.48867 141.667 8.97067 141.48 8.476C141.303 7.972 141.051 7.52867 140.724 7.146C140.397 6.76333 140.01 6.46 139.562 6.236C139.114 6.00267 138.619 5.886 138.078 5.886C137.518 5.886 137.009 6.00733 136.552 6.25C136.095 6.48333 135.707 6.796 135.39 7.188C135.073 7.58 134.825 8.02333 134.648 8.518C134.48 9.01267 134.396 9.51667 134.396 10.03ZM151.77 13.544C150.846 14.5613 149.782 15.07 148.578 15.07C147.906 15.07 147.285 14.9253 146.716 14.636C146.156 14.3467 145.666 13.964 145.246 13.488C144.835 13.012 144.513 12.4753 144.28 11.878C144.046 11.2713 143.93 10.6507 143.93 10.016C143.93 9.35333 144.042 8.71867 144.266 8.112C144.499 7.50533 144.821 6.97333 145.232 6.516C145.642 6.04933 146.128 5.68067 146.688 5.41C147.248 5.13 147.859 4.99 148.522 4.99C149.007 4.99 149.45 5.046 149.852 5.158C150.253 5.26067 150.608 5.41 150.916 5.606C151.233 5.79267 151.504 6.02133 151.728 6.292C151.961 6.55333 152.157 6.84267 152.316 7.16L151.56 7.664C151.233 7.048 150.808 6.59533 150.286 6.306C149.763 6.01667 149.17 5.872 148.508 5.872C147.957 5.872 147.458 5.98867 147.01 6.222C146.571 6.45533 146.193 6.768 145.876 7.16C145.568 7.54267 145.33 7.986 145.162 8.49C144.994 8.98467 144.91 9.498 144.91 10.03C144.91 10.59 145.003 11.122 145.19 11.626C145.386 12.13 145.652 12.5733 145.988 12.956C146.324 13.3293 146.716 13.628 147.164 13.852C147.621 14.076 148.116 14.188 148.648 14.188C149.217 14.188 149.758 14.0573 150.272 13.796C150.794 13.5253 151.294 13.1007 151.77 12.522V10.87H149.558V10.114H152.596V15H151.77V13.544ZM158.613 15.07C157.923 15.07 157.288 14.93 156.709 14.65C156.14 14.3607 155.65 13.9827 155.239 13.516C154.829 13.04 154.511 12.4987 154.287 11.892C154.063 11.2853 153.951 10.6647 153.951 10.03C153.951 9.36733 154.068 8.73267 154.301 8.126C154.544 7.51933 154.875 6.98267 155.295 6.516C155.715 6.04933 156.21 5.68067 156.779 5.41C157.349 5.13 157.965 4.99 158.627 4.99C159.318 4.99 159.948 5.13933 160.517 5.438C161.096 5.72733 161.586 6.11 161.987 6.586C162.398 7.062 162.715 7.60333 162.939 8.21C163.163 8.80733 163.275 9.41867 163.275 10.044C163.275 10.7067 163.154 11.3413 162.911 11.948C162.678 12.5547 162.351 13.0913 161.931 13.558C161.521 14.0153 161.031 14.384 160.461 14.664C159.892 14.9347 159.276 15.07 158.613 15.07ZM154.931 10.03C154.931 10.5713 155.02 11.094 155.197 11.598C155.375 12.0927 155.627 12.536 155.953 12.928C156.28 13.3107 156.667 13.6187 157.115 13.852C157.563 14.076 158.063 14.188 158.613 14.188C159.173 14.188 159.682 14.0667 160.139 13.824C160.597 13.5813 160.984 13.264 161.301 12.872C161.619 12.48 161.861 12.0367 162.029 11.542C162.207 11.0473 162.295 10.5433 162.295 10.03C162.295 9.48867 162.202 8.97067 162.015 8.476C161.838 7.972 161.586 7.52867 161.259 7.146C160.933 6.76333 160.545 6.46 160.097 6.236C159.649 6.00267 159.155 5.886 158.613 5.886C158.053 5.886 157.545 6.00733 157.087 6.25C156.63 6.48333 156.243 6.796 155.925 7.188C155.608 7.58 155.361 8.02333 155.183 8.518C155.015 9.01267 154.931 9.51667 154.931 10.03Z" fill="black"/>
<path d="M1 58H0.5V58.5H1V58ZM26.3536 58.3536C26.5488 58.1583 26.5488 57.8417 26.3536 57.6464L23.1716 54.4645C22.9763 54.2692 22.6597 54.2692 22.4645 54.4645C22.2692 54.6597 22.2692 54.9763 22.4645 55.1716L25.2929 58L22.4645 60.8284C22.2692 61.0237 22.2692 61.3403 22.4645 61.5355C22.6597 61.7308 22.9763 61.7308 23.1716 61.5355L26.3536 58.3536ZM1 11.5V11H0.5V11.5H1ZM1 58.5H26V57.5H1V58.5ZM1.5 58V11.5H0.5V58H1.5ZM1 12H68.5V11H1V12Z" fill="black"/>
</svg>
